<!-- Generated by IcoMoon.io -->
<svg version="1.1" xmlns="http://www.w3.org/2000/svg" width="32" height="32" viewBox="0 0 32 32">
<title>logo</title>
<path fill="#f3f3f3" d="M31.979 15.799c-0.647-12.049-6.457-13.811-11.14-13.811h-0c-1.183 0.001-2.294 0.113-3.232 0.201-0.008-0.548 0.014-1.135 0.1-1.783 0.002-0.009-0.002-0.017-0.003-0.026 0.001-0.005 0.003-0.009 0.003-0.014 0-0.202-0.354-0.366-0.793-0.366-0.437 0-0.791 0.164-0.791 0.366-0.12 0.654-0.283 1.298-0.489 1.926-6.18 0.040-14.32 1.090-15.563 13.098-0.901 8.715 7.043 16.61 15.98 16.61s16.399-7.443 15.929-16.201zM17.939 3.878c0.218-0.021 0.444-0.042 0.677-0.062-0.279 0.121-0.551 0.246-0.806 0.371-0.019-0.090-0.032-0.198-0.049-0.294l0.178-0.016zM14.974 4.014c-0.070 0.156-0.138 0.306-0.204 0.443-0.157-0.152-0.323-0.294-0.498-0.424 0.234-0.009 0.467-0.014 0.701-0.019zM27.012 25.329c-2.776 3.15-6.772 4.957-10.962 4.957-4.27 0-8.512-2.025-11.347-5.417-2.297-2.749-3.378-6.048-3.042-9.29 0.63-6.085 3.142-8.991 6.367-10.367 3.124-0.622 6.064 0.52 6.064 0.52s-6.682-1.777-9.302 7.422c3.298-5.508 8.972-3.887 10.465-5.917 0 3.925 2.662 2.021 4.008 3.789 1.731 2.273 2.365 6.346 4.356 7.149-1.962-4.512 1.25-4.336-3.262-10.391 2.377 1.582 3.61-0.019 6.855 1.407-2.777-4.863-7.22-3.457-7.22-3.457s1.808-1.765 3.725-1.716c3.238 0.81 6.217 3.537 6.666 11.883 0.182 3.409-1.014 6.758-3.37 9.431z"></path>
</svg>
