<!-- Generated by IcoMoon.io -->
<svg version="1.1" xmlns="http://www.w3.org/2000/svg" width="32" height="32" viewBox="0 0 32 32">
<title>youtube</title>
<path fill="#f3f3f3" d="M29.398 5.928c-0.867-0.624-3.283-1.453-13.406-1.453-10.849 0-12.458 0.952-12.975 1.264-2.749 1.651-3.010 8.963-3.034 10.445 0.033 1.958 0.349 8.473 3.032 10.084 0.516 0.31 2.116 1.257 12.977 1.257 10.13 0 12.543-0.825 13.406-1.447 2.343-1.685 2.613-7.49 2.619-9.92-0.006-1.954-0.211-8.496-2.619-10.23v-0zM28.23 24.455c-0.349 0.251-2.35 1.069-12.239 1.069-9.56 0-11.566-0.742-11.945-0.971-0.965-0.579-1.984-3.653-2.063-8.376 0.079-4.713 1.111-8.153 2.066-8.725 0.38-0.229 2.393-0.978 11.943-0.978 9.881 0 11.887 0.824 12.239 1.076 0.857 0.617 1.773 3.865 1.787 8.614-0.013 4.823-0.936 7.679-1.787 8.291v0zM22.513 15.213l-8.998-5.522c-0.152-0.091-0.325-0.141-0.502-0.144s-0.352 0.042-0.506 0.129c-0.154 0.087-0.283 0.214-0.372 0.367s-0.137 0.327-0.137 0.504v11.045c0 0.265 0.106 0.519 0.293 0.707s0.442 0.293 0.707 0.293c0.182 0 0.361-0.050 0.517-0.143l8.998-5.524c0.3-0.181 0.483-0.506 0.483-0.856s-0.183-0.676-0.483-0.857h-0zM13.999 19.822v-7.503l6.063 3.751-6.063 3.752z"></path>
</svg>
